<svg viewBox="3.298352177203221 1.4153019164665743 14.419719133670492 3.612188473369914" xmlns:xlink="http://www.w3.org/1999/xlink" version="1.1" xmlns="http://www.w3.org/2000/svg" style="max-height: 500px" width="14.419719133670492" height="3.612188473369914"><g transform="matrix(0.7384737614002227,0,0,0.7384737614002227,6.670243781454312,2.5134098583135347)"><g clip-path="url(#SvgjsClipPath35032)" transform="matrix(1,0,0,1,0,0)"><g clip-path="url(#SvgjsClipPath35030f46be444-b73d-4836-bfcc-5e789383ecc2)"><path fill-rule="nonzero" transform="matrix(1,0,0,1,0,0)" fill="#0e0904" d="M -0.6510173628895473 -0.08798247047943075 C -0.891522429924628 -0.11896760770793013 -1.120992490261647 -0.20928042568415528 -1.3221200070794406 -0.31825111682749485 C -1.3362912788390546 -0.30643204386404665 -1.3504770703443234 -0.2940902600570062 -1.3649242172713878 -0.2820243514174172 C -1.4071911968740878 -0.2457975860073397 -1.449472696222443 -0.20929494542981064 -1.492001031246938 -0.17253094943048564 C -1.5195740282464323 -0.14863144808179318 -1.5474083806677226 -0.12448511105695992 -1.5749668579215612 -0.10006289886467534 C -1.646650842221983 -0.037308558142288506 -1.7183203067767492 0.026229848845486847 -1.7897429356553753 0.09055232209865038 C -1.8601056231011612 0.15382937366462968 -1.930206955125151 0.21762913607420087 -1.9997855763055483 0.2824888399166121 L -1.9997855763055483 2.7547514129059865 C -2.0278812841486347 2.7697212706766434 -2.056499702835313 2.7841538978580527 -2.0851181215219916 2.7978169785197293 C -2.0877461954856082 2.7991237556287105 -2.0903742694492253 2.8004450524833464 -2.093263698834638 2.8017518295923267 L -2.093263698834638 0.3701881036748753 C -2.1638877417022204 0.43661594004806403 -2.23398907372621 0.5038278426866407 -2.303306339484811 0.572099686758057 C -2.375774390050622 0.6432609602148867 -2.4477197297728397 0.7151917801914494 -2.5183437726404216 0.7879211861790563 C -2.5895050460972513 0.8606505921666625 -2.6596063781212407 0.9344254198414539 -2.728386413290594 1.0087374781054927 L -2.728386413290594 2.6408149687485194 C -2.740466841675839 2.6329452666033246 -2.7525472700610836 2.6247996892906773 -2.7643518232788757 2.616392756556235 C -2.783779242965723 2.60300555106201 -2.8032066626525705 2.589081114978537 -2.822111371495825 2.574909843218924 L -2.822111371495825 1.1113920798887575 C -2.8937953557962466 1.1909457663343745 -2.9638966878202364 1.2710221636235846 -3.0321540121459982 1.3521585023456335 C -3.0339980198442262 1.354002510043862 -3.0358275077967996 1.356093353418231 -3.0374101600732315 1.3581987165382559 C -3.1232654161332674 1.4598078966343373 -3.2064925982296857 1.5627383735850542 -3.2860608044209583 1.6667142722229562 C -3.326236940649289 1.7189563170908755 -3.366398557131964 1.772519658813431 -3.404745205407721 1.8252989342705976 C -3.419192352334786 1.8449877093792415 -3.4331022686726036 1.8644151290660889 -3.4464894741668286 1.8833198379093432 C -3.45016296981763 1.8883146304147809 -3.4535751100466356 1.8932949031745625 -3.4569872502756405 1.8982896956800002 C -3.4845602472751347 1.9371445350536953 -3.510550591998196 1.9749539527402045 -3.5357568704558693 2.0122406595831217 L -3.5759330066842 2.0718442154982997 C -3.56044043806995 2.095743716846992 -3.5444251586121083 2.119367343028233 -3.52814852373247 2.1427296137876786 C -3.475630603697099 2.2178257383171047 -3.4199764186001747 2.289495202871872 -3.3614182843721814 2.3577670469432883 C -3.2191102572041776 2.5231759894489416 -3.058420232036511 2.6683734460023585 -2.8840816459528233 2.788887334941694 C -2.7766936070859156 2.863722104049325 -2.6616972214956096 2.9304112958443085 -2.5430128205088467 2.986864066952278 C -2.490770775640927 3.012331700831747 -2.4351020707983473 3.0364925576022355 -2.373654507184941 3.0609002500488645 L -2.268110476016262 3.1026445188079723 L -2.1625664448475836 3.0609002500488645 C -2.101133400979833 3.036739393278377 -2.0457260515590487 3.012331700831747 -1.9940067175347216 2.987125422374074 C -1.8753368362936143 2.9304112958443085 -1.7603259309576527 2.863722104049325 -1.6524151812471533 2.788887334941693 C -1.4775538843198728 2.6675893797369685 -1.316863859152206 2.5223919231835525 -1.1750785428277948 2.3575056915214923 C -0.9356188974799005 2.0789298513781063 -0.7468476842148029 1.7420572324285242 -0.6134547808791786 1.356093353418231 C -0.40235219879616624 0.7461623976742928 -0.40000000000000036 0.21947314377242821 -0.40000000000000036 0.197417650121964 L -0.40000000000000036 -0.05516784529836016 L -0.6510028431438912 -0.0879824704794323 Z M -0.6100571603958294 0.19741765012196555 C -0.6100571603958294 0.21816636666344857 -0.6124238789376495 0.7104583431078089 -0.811968743479011 1.2872987985032236 C -0.9366788389127398 1.6483177544776397 -1.1123387218510636 1.9620749383439182 -1.3344617908864809 2.220439292535068 C -1.3444368561517006 2.2319970100767197 -1.35441192141692 2.243540207872716 -1.3649242172713878 2.2548365699925723 L -1.3649242172713878 -0.10321368367188422 C -1.157771006006628 0.002591702918590677 -0.9243515748513547 0.08846147872428145 -0.678067649045448 0.12049203763996541 L -0.6100716801414836 0.1291603257962044 L -0.6100716801414836 0.1974321698676209 Z"/></g><g clip-path="url(#SvgjsClipPath35030f46be444-b73d-4836-bfcc-5e789383ecc2)"><path fill-rule="nonzero" transform="matrix(1,0,0,1,0,0)" fill="#8c1627" d="M -0.8497781611655202 -0.9155789333425965 C -1.8267682870764972 -0.4206588829346196 -2.9163880800359596 0.2499210504116811 -3.7899250181526263 1.0777788686966427 C -3.8067243638758566 1.0179139573596692 -3.8211715108029214 0.9596316982991271 -3.8340360054535543 0.9034402826129553 C -3.834820071718943 0.9008122086493386 -3.835342782562535 0.8984454901075176 -3.8358800131517827 0.8958319358895563 C -3.9251474094408234 0.503305131843049 -3.9264687062954593 0.2131715741580109 -3.9264687062954593 0.19741765012196533 L -3.9264687062954593 0.1291458060505486 L -3.8589954482350866 0.12047751789430983 C -3.0206398538413124 0.01204405734021785 -2.3319392779171455 -0.7225969938374502 -2.3251149974591345 -0.7299585048847086 L -2.268139515507574 -0.791130193330663 L -2.2114253889778093 -0.7299585048847086 C -2.2090586704359882 -0.7275917863428878 -2.0869766489658756 -0.6026203354873619 -1.9530610347866593 -0.485257231355235 C -1.8863718429916747 -0.5256947230053617 -1.818637229509506 -0.5655949840662406 -1.7501040300162929 -0.6055097648727749 C -1.9089500474857313 -0.7236569352702902 -2.0549315703045363 -0.8704370441001394 -2.057298288846357 -0.8730651180637563 L -2.268139515507574 -1.0993989133392226 L -2.4789807421687904 -0.8730651180637563 C -2.485282311783209 -0.8662408376057458 -3.1303946112500403 -0.18542448357242913 -3.886045734390988 -0.0880115099707417 L -4.136525866691287 -0.055196884789669554 L -4.136525866691287 0.1973886106306546 C -4.136525866691287 0.21577060863031705 -4.134957734160511 0.5901767700989582 -4.009449052715738 1.0706641933255254 C -4.0084036310285525 1.0740763335545307 -4.007605045017509 1.0777498292053325 -4.0065596233303244 1.0814233248561338 C -3.992649706992507 1.1344639557350973 -3.9771571383782574 1.188811363723041 -3.9598205620657794 1.2442041933981696 C -3.9506295630659483 1.2746666197830765 -3.940393142378932 1.305375881844124 -3.92989536627012 1.336361019072623 C -3.9277900031500956 1.3429239441088374 -3.9256991597757263 1.3494868691450523 -3.9233324412339057 1.3560497941812668 C -3.897080741089048 1.431668629554286 -3.8687236778241654 1.5057048126508732 -3.837999896017463 1.5773887969512954 C -3.8235527490903976 1.6120474298305958 -3.8085974110653957 1.6461833518663045 -3.7928434870293497 1.679782043312765 C -3.754250003077452 1.7630092254091834 -3.7130284451619366 1.8433614978658446 -3.668656102439212 1.920809821191437 C -3.667872036173824 1.9218552428786218 -3.6673493253302314 1.923176539733258 -3.6665507393191876 1.9242219614204423 C -3.6232238182836483 1.8598994881672783 -3.5783287647173316 1.7960852060120522 -3.5321269340420343 1.7325467990242769 C -2.7927524457807245 0.7151191814631739 -1.7367458640133786 -0.19359910037638606 -0.8498072006568318 -0.9156370123252175 Z"/></g></g><g><path fill-rule="nonzero" fill="#0e0904" d="M 0.075439453125 0.5625000000000002 Q 0.075439453125 0.4848632812500002 0.0955810546875 0.4127197265625002 Q 0.11572265625 0.3405761718750002 0.154541015625 0.2783203125000002 Q 0.193359375 0.21606445312500022 0.249755859375 0.16479492187500022 Q 0.30615234375 0.11352539062500022 0.3782958984375 0.07690429687500022 Q 0.450439453125 0.04028320312500022 0.53759765625 0.020141601562500222 Q 0.624755859375 2.220446049250313e-16 0.72509765625 2.220446049250313e-16 Q 0.78955078125 2.220446049250313e-16 0.8485107421875 0.008056640625000222 Q 0.907470703125 0.016113281250000222 0.95947265625 0.030395507812500222 Q 1.011474609375 0.04467773437500022 1.0557861328125 0.06335449218750022 Q 1.10009765625 0.08203125000000022 1.135986328125 0.10253906250000022 L 1.072998046875 0.22558593750000022 Q 1.031982421875 0.20581054687500022 0.9796142578125 0.19226074218750022 Q 0.92724609375 0.17871093750000022 0.870849609375 0.17871093750000022 Q 0.79541015625 0.17871093750000022 0.73095703125 0.20581054687500022 Q 0.66650390625 0.23291015625000022 0.61962890625 0.2827148437500002 Q 0.57275390625 0.3325195312500002 0.5460205078125 0.4031982421875002 Q 0.519287109375 0.4738769531250002 0.519287109375 0.5617675781250002 Q 0.519287109375 0.6489257812500002 0.545654296875 0.7196044921875002 Q 0.572021484375 0.7902832031250002 0.6185302734375 0.8404541015625002 Q 0.6650390625 0.8906250000000002 0.7291259765625 0.9180908203125002 Q 0.793212890625 0.9455566406250002 0.867919921875 0.9455566406250002 Q 0.920654296875 0.9455566406250002 0.973388671875 0.9327392578125002 Q 1.026123046875 0.9199218750000002 1.070068359375 0.8986816406250002 L 1.133056640625 1.0217285156250002 Q 1.09716796875 1.0429687500000002 1.05322265625 1.0612792968750002 Q 1.00927734375 1.0795898437500002 0.9580078125 1.0938720703125002 Q 0.90673828125 1.1081542968750002 0.84814453125 1.1162109375000002 Q 0.78955078125 1.1242675781250002 0.72509765625 1.1242675781250002 Q 0.574951171875 1.1242675781250002 0.4544677734375 1.0799560546875002 Q 0.333984375 1.0356445312500002 0.249755859375 0.9591064453125002 Q 0.16552734375 0.8825683593750002 0.1204833984375 0.7803955078125002 Q 0.075439453125 0.6782226562500002 0.075439453125 0.5625000000000002 M 1.24072265625 0.5595703125000002 Q 1.24072265625 0.4357910156250002 1.2802734375 0.3328857421875002 Q 1.31982421875 0.22998046875000022 1.398193359375 0.15600585937500022 Q 1.4765625 0.08203125000000022 1.59375 0.04101562500000022 Q 1.7109375 2.220446049250313e-16 1.8662109375 2.220446049250313e-16 Q 2.021484375 2.220446049250313e-16 2.138671875 0.04101562500000022 Q 2.255859375 0.08203125000000022 2.334228515625 0.15600585937500022 Q 2.41259765625 0.22998046875000022 2.4521484375 0.3328857421875002 Q 2.49169921875 0.4357910156250002 2.49169921875 0.5595703125000002 Q 2.49169921875 0.6848144531250002 2.4521484375 0.7888183593750002 Q 2.41259765625 0.8928222656250002 2.334228515625 0.9667968750000002 Q 2.255859375 1.0407714843750002 2.138671875 1.0817871093750002 Q 2.021484375 1.1228027343750002 1.8662109375 1.1228027343750002 Q 1.7109375 1.1228027343750002 1.59375 1.0817871093750002 Q 1.4765625 1.0407714843750002 1.398193359375 0.9667968750000002 Q 1.31982421875 0.8928222656250002 1.2802734375 0.7888183593750002 Q 1.24072265625 0.6848144531250002 1.24072265625 0.5595703125000002 M 1.8662109375 0.9711914062500002 Q 1.91015625 0.9711914062500002 1.94384765625 0.9558105468750002 Q 1.9775390625 0.9404296875000002 2.000244140625 0.8957519531250002 Q 2.02294921875 0.8510742187500002 2.03466796875 0.7705078125000002 Q 2.04638671875 0.6899414062500002 2.04638671875 0.5595703125000002 Q 2.04638671875 0.4306640625000002 2.03466796875 0.3508300781250002 Q 2.02294921875 0.2709960937500002 2.000244140625 0.22705078125000022 Q 1.9775390625 0.18310546875000022 1.94384765625 0.16772460937500022 Q 1.91015625 0.15234375000000022 1.8662109375 0.15234375000000022 Q 1.822265625 0.15234375000000022 1.7882080078125 0.16772460937500022 Q 1.754150390625 0.18310546875000022 1.7314453125 0.22705078125000022 Q 1.708740234375 0.2709960937500002 1.697021484375 0.3508300781250002 Q 1.685302734375 0.4306640625000002 1.685302734375 0.5595703125000002 Q 1.685302734375 0.6899414062500002 1.697021484375 0.7705078125000002 Q 1.708740234375 0.8510742187500002 1.7314453125 0.8957519531250002 Q 1.754150390625 0.9404296875000002 1.7882080078125 0.9558105468750002 Q 1.822265625 0.9711914062500002 1.8662109375 0.9711914062500002 M 2.706298828125 0.017578125000000222 L 2.971435546875 0.017578125000000222 L 3.662109375 0.5976562500000002 L 3.662841796875 0.017578125000000222 L 3.823974609375 0.017578125000000222 L 3.823974609375 1.1059570312500002 L 3.558837890625 1.1059570312500002 L 2.867431640625 0.5280761718750002 L 2.867431640625 1.1059570312500002 L 2.706298828125 1.1059570312500002 L 2.706298828125 0.017578125000000222 M 4.102294921875 0.017578125000000222 L 4.367431640625 0.017578125000000222 L 5.05810546875 0.5976562500000002 L 5.058837890625 0.017578125000000222 L 5.219970703125 0.017578125000000222 L 5.219970703125 1.1059570312500002 L 4.954833984375 1.1059570312500002 L 4.263427734375 0.5280761718750002 L 4.263427734375 1.1059570312500002 L 4.102294921875 1.1059570312500002 L 4.102294921875 0.017578125000000222 M 5.498291015625 0.017578125000000222 L 6.418212890625 0.017578125000000222 L 6.418212890625 0.18530273437500022 L 5.92236328125 0.18530273437500022 L 5.921630859375 0.4790039062500002 L 6.301025390625 0.4790039062500002 L 6.301025390625 0.6467285156250002 L 5.921630859375 0.6467285156250002 L 5.921630859375 0.9382324218750002 L 6.418212890625 0.9382324218750002 L 6.418212890625 1.1059570312500002 L 5.498291015625 1.1059570312500002 L 5.498291015625 0.017578125000000222 M 6.572021484375 0.5625000000000002 Q 6.572021484375 0.4848632812500002 6.5921630859375 0.4127197265625002 Q 6.6123046875 0.3405761718750002 6.651123046875 0.2783203125000002 Q 6.68994140625 0.21606445312500022 6.746337890625 0.16479492187500022 Q 6.802734375 0.11352539062500022 6.8748779296875 0.07690429687500022 Q 6.947021484375 0.04028320312500022 7.0341796875 0.020141601562500222 Q 7.121337890625 2.220446049250313e-16 7.2216796875 2.220446049250313e-16 Q 7.2861328125 2.220446049250313e-16 7.3450927734375 0.008056640625000222 Q 7.404052734375 0.016113281250000222 7.4560546875 0.030395507812500222 Q 7.508056640625 0.04467773437500022 7.5523681640625 0.06335449218750022 Q 7.5966796875 0.08203125000000022 7.632568359375 0.10253906250000022 L 7.569580078125 0.22558593750000022 Q 7.528564453125 0.20581054687500022 7.4761962890625 0.19226074218750022 Q 7.423828125 0.17871093750000022 7.367431640625 0.17871093750000022 Q 7.2919921875 0.17871093750000022 7.2275390625 0.20581054687500022 Q 7.1630859375 0.23291015625000022 7.1162109375 0.2827148437500002 Q 7.0693359375 0.3325195312500002 7.0426025390625 0.4031982421875002 Q 7.015869140625 0.4738769531250002 7.015869140625 0.5617675781250002 Q 7.015869140625 0.6489257812500002 7.042236328125 0.7196044921875002 Q 7.068603515625 0.7902832031250002 7.1151123046875 0.8404541015625002 Q 7.16162109375 0.8906250000000002 7.2257080078125 0.9180908203125002 Q 7.289794921875 0.9455566406250002 7.364501953125 0.9455566406250002 Q 7.417236328125 0.9455566406250002 7.469970703125 0.9327392578125002 Q 7.522705078125 0.9199218750000002 7.566650390625 0.8986816406250002 L 7.629638671875 1.0217285156250002 Q 7.59375 1.0429687500000002 7.5498046875 1.0612792968750002 Q 7.505859375 1.0795898437500002 7.45458984375 1.0938720703125002 Q 7.4033203125 1.1081542968750002 7.3447265625 1.1162109375000002 Q 7.2861328125 1.1242675781250002 7.2216796875 1.1242675781250002 Q 7.071533203125 1.1242675781250002 6.9510498046875 1.0799560546875002 Q 6.83056640625 1.0356445312500002 6.746337890625 0.9591064453125002 Q 6.662109375 0.8825683593750002 6.6170654296875 0.7803955078125002 Q 6.572021484375 0.6782226562500002 6.572021484375 0.5625000000000002 M 7.9921875 0.18457031250000022 L 7.681640625 0.18457031250000022 L 7.681640625 0.016845703125000222 L 8.72607421875 0.016845703125000222 L 8.72607421875 0.18457031250000022 L 8.41552734375 0.18457031250000022 L 8.41552734375 1.1059570312500002 L 7.9921875 1.1059570312500002 L 7.9921875 0.18457031250000022 M 9.33984375 0.017578125000000222 L 9.763916015625 0.017578125000000222 L 9.76318359375 1.1059570312500002 L 9.33984375 1.1059570312500002 L 9.33984375 0.017578125000000222 M 10.042236328125 0.017578125000000222 L 10.307373046875 0.017578125000000222 L 10.998046875 0.5976562500000002 L 10.998779296875 0.017578125000000222 L 11.159912109375 0.017578125000000222 L 11.159912109375 1.1059570312500002 L 10.894775390625 1.1059570312500002 L 10.203369140625 0.5280761718750002 L 10.203369140625 1.1059570312500002 L 10.042236328125 1.1059570312500002 L 10.042236328125 0.017578125000000222 M 11.438232421875 0.017578125000000222 L 11.8857421875 0.017578125000000222 Q 12.07470703125 0.017578125000000222 12.213134765625 0.05310058593750022 Q 12.3515625 0.08862304687500022 12.4423828125 0.15747070312500022 Q 12.533203125 0.22631835937500022 12.5771484375 0.3266601562500002 Q 12.62109375 0.4270019531250002 12.62109375 0.5566406250000002 Q 12.62109375 0.6723632812500002 12.5771484375 0.7723388671875002 Q 12.533203125 0.8723144531250002 12.4423828125 0.9466552734375002 Q 12.3515625 1.0209960937500002 12.213134765625 1.0634765625000002 Q 12.07470703125 1.1059570312500002 11.8857421875 1.1059570312500002 L 11.438232421875 1.1059570312500002 L 11.438232421875 0.017578125000000222 M 11.861572265625 0.9462890625000002 Q 11.934814453125 0.9462890625000002 11.993408203125 0.9235839843750002 Q 12.052001953125 0.9008789062500002 12.0926513671875 0.8532714843750002 Q 12.13330078125 0.8056640625000002 12.1549072265625 0.7320556640625002 Q 12.176513671875 0.6584472656250002 12.176513671875 0.5559082031250002 Q 12.176513671875 0.4541015625000002 12.154541015625 0.3823242187500002 Q 12.132568359375 0.3105468750000002 12.091552734375 0.2647705078125002 Q 12.050537109375 0.21899414062500022 11.9923095703125 0.19812011718750022 Q 11.93408203125 0.17724609375000022 11.8623046875 0.17724609375000022 L 11.861572265625 0.9462890625000002 M 12.835693359375 0.017578125000000222 L 13.259765625 0.017578125000000222 L 13.259033203125 1.1059570312500002 L 12.835693359375 1.1059570312500002 L 12.835693359375 0.017578125000000222 M 13.839111328125 0.2922363281250002 L 13.713134765625 0.017578125000000222 L 14.1591796875 0.017578125000000222 L 14.6923828125 1.1066894531250002 L 14.214111328125 1.1066894531250002 L 14.133544921875 0.9323730468750002 L 13.704345703125 0.9323730468750002 L 13.62451171875 1.1066894531250002 L 13.439208984375 1.1066894531250002 L 13.839111328125 0.2922363281250002 M 14.056640625 0.7646484375000002 L 13.9189453125 0.4658203125000002 L 13.781982421875 0.7646484375000002 L 14.056640625 0.7646484375000002"/></g><g><path fill-rule="nonzero" fill="#8c1627" d="M 0.4245 1.95674560546875 L 0.4245 2.00324560546875 L 0.06675 2.00324560546875 L 0.06675 1.47074560546875 L 0.41775 1.47074560546875 L 0.41775 1.51724560546875 L 0.11925000000000001 1.51724560546875 L 0.11925000000000001 1.70924560546875 L 0.3795 1.70924560546875 L 0.3795 1.75349560546875 L 0.11925000000000001 1.75349560546875 L 0.11925000000000001 1.95674560546875 L 0.4245 1.95674560546875 M 0.5771315917968749 1.5674956054687499 L 0.5771315917968749 2.00324560546875 L 0.5246315917968749 2.00324560546875 L 0.5246315917968749 1.47074560546875 L 0.5681315917968749 1.47074560546875 L 0.9176315917968749 1.91474560546875 L 0.9176315917968749 1.4714956054687498 L 0.9701315917968749 1.4714956054687498 L 0.9701315917968749 2.00324560546875 L 0.921381591796875 2.00324560546875 L 0.5771315917968749 1.5674956054687499 M 1.4827360839843748 1.51724560546875 L 1.292986083984375 1.51724560546875 L 1.292986083984375 2.00324560546875 L 1.2404860839843748 2.00324560546875 L 1.2404860839843748 1.51724560546875 L 1.050736083984375 1.51724560546875 L 1.050736083984375 1.47074560546875 L 1.4827360839843748 1.47074560546875 L 1.4827360839843748 1.51724560546875 M 1.9211000976562498 1.95674560546875 L 1.9211000976562498 2.00324560546875 L 1.5633500976562498 2.00324560546875 L 1.5633500976562498 1.47074560546875 L 1.9143500976562497 1.47074560546875 L 1.9143500976562497 1.51724560546875 L 1.6158500976562498 1.51724560546875 L 1.6158500976562498 1.70924560546875 L 1.8761000976562496 1.70924560546875 L 1.8761000976562496 1.75349560546875 L 1.6158500976562498 1.75349560546875 L 1.6158500976562498 1.95674560546875 L 1.9211000976562498 1.95674560546875 M 2.0212316894531246 2.00324560546875 L 2.0212316894531246 1.47074560546875 L 2.2462316894531247 1.47074560546875 Q 2.2807316894531247 1.47074560546875 2.309231689453125 1.4849956054687499 Q 2.3377316894531246 1.49924560546875 2.3591066894531245 1.52362060546875 Q 2.380481689453125 1.54799560546875 2.392106689453125 1.5776206054687498 Q 2.403731689453125 1.60724560546875 2.403731689453125 1.63799560546875 Q 2.403731689453125 1.67624560546875 2.3891066894531248 1.70999560546875 Q 2.3744816894531247 1.74374560546875 2.347856689453125 1.76699560546875 Q 2.321231689453125 1.79024560546875 2.285231689453125 1.79774560546875 L 2.415731689453125 2.00324560546875 L 2.356481689453125 2.00324560546875 L 2.2312316894531246 1.80674560546875 L 2.073731689453125 1.80674560546875 L 2.073731689453125 2.00324560546875 L 2.0212316894531246 2.00324560546875 M 2.073731689453125 1.76024560546875 L 2.2477316894531247 1.76024560546875 Q 2.2792316894531246 1.76024560546875 2.3024816894531246 1.7429956054687499 Q 2.3257316894531246 1.7257456054687499 2.3384816894531246 1.69762060546875 Q 2.3512316894531247 1.66949560546875 2.3512316894531247 1.63799560546875 Q 2.3512316894531247 1.60574560546875 2.3366066894531246 1.5783706054687499 Q 2.321981689453125 1.55099560546875 2.297606689453125 1.53412060546875 Q 2.273231689453125 1.51724560546875 2.2432316894531246 1.51724560546875 L 2.073731689453125 1.51724560546875 L 2.073731689453125 1.76024560546875 M 2.512118041992187 2.00324560546875 L 2.512118041992187 1.47074560546875 L 2.732618041992187 1.47074560546875 Q 2.7671180419921875 1.47074560546875 2.7959930419921872 1.4849956054687499 Q 2.8248680419921874 1.49924560546875 2.8458680419921873 1.52362060546875 Q 2.8668680419921873 1.54799560546875 2.8788680419921873 1.5776206054687498 Q 2.8908680419921873 1.60724560546875 2.8908680419921873 1.63799560546875 Q 2.8908680419921873 1.68149560546875 2.8717430419921874 1.72012060546875 Q 2.852618041992187 1.75874560546875 2.818118041992187 1.78274560546875 Q 2.783618041992187 1.80674560546875 2.7371180419921872 1.80674560546875 L 2.5646180419921873 1.80674560546875 L 2.5646180419921873 2.00324560546875 L 2.512118041992187 2.00324560546875 M 2.5646180419921873 1.76024560546875 L 2.734868041992187 1.76024560546875 Q 2.7663680419921874 1.76024560546875 2.7896180419921874 1.7429956054687499 Q 2.8128680419921874 1.7257456054687499 2.8256180419921875 1.69799560546875 Q 2.8383680419921875 1.67024560546875 2.8383680419921875 1.63799560546875 Q 2.8383680419921875 1.60499560546875 2.8233680419921874 1.57724560546875 Q 2.8083680419921873 1.54949560546875 2.7839930419921872 1.53337060546875 Q 2.759618041992187 1.51724560546875 2.7303680419921874 1.51724560546875 L 2.5646180419921873 1.51724560546875 L 2.5646180419921873 1.76024560546875 M 2.9797499999999997 2.00324560546875 L 2.9797499999999997 1.47074560546875 L 3.2047499999999998 1.47074560546875 Q 3.2392499999999997 1.47074560546875 3.26775 1.4849956054687499 Q 3.2962499999999997 1.49924560546875 3.3176249999999996 1.52362060546875 Q 3.339 1.54799560546875 3.350625 1.5776206054687498 Q 3.36225 1.60724560546875 3.36225 1.63799560546875 Q 3.36225 1.67624560546875 3.347625 1.70999560546875 Q 3.3329999999999997 1.74374560546875 3.306375 1.76699560546875 Q 3.27975 1.79024560546875 3.24375 1.79774560546875 L 3.37425 2.00324560546875 L 3.315 2.00324560546875 L 3.1897499999999996 1.80674560546875 L 3.03225 1.80674560546875 L 3.03225 2.00324560546875 L 2.9797499999999997 2.00324560546875 M 3.03225 1.76024560546875 L 3.20625 1.76024560546875 Q 3.2377499999999997 1.76024560546875 3.2609999999999997 1.7429956054687499 Q 3.2842499999999997 1.7257456054687499 3.2969999999999997 1.69762060546875 Q 3.3097499999999997 1.66949560546875 3.3097499999999997 1.63799560546875 Q 3.3097499999999997 1.60574560546875 3.2951249999999996 1.5783706054687499 Q 3.2805 1.55099560546875 3.256125 1.53412060546875 Q 3.23175 1.51724560546875 3.2017499999999997 1.51724560546875 L 3.03225 1.51724560546875 L 3.03225 1.76024560546875 M 3.470636352539062 2.00324560546875 L 3.470636352539062 1.47074560546875 L 3.5231363525390624 1.47074560546875 L 3.5231363525390624 2.00324560546875 L 3.470636352539062 2.00324560546875 M 3.969000732421875 1.57049560546875 Q 3.957750732421875 1.55774560546875 3.942750732421875 1.54762060546875 Q 3.927750732421875 1.53749560546875 3.909000732421875 1.52999560546875 Q 3.890250732421875 1.52249560546875 3.8688757324218748 1.51799560546875 Q 3.847500732421875 1.51349560546875 3.823500732421875 1.51349560546875 Q 3.753750732421875 1.51349560546875 3.721125732421875 1.54012060546875 Q 3.688500732421875 1.5667456054687499 3.688500732421875 1.61249560546875 Q 3.688500732421875 1.64399560546875 3.7038757324218747 1.66199560546875 Q 3.719250732421875 1.67999560546875 3.752250732421875 1.69124560546875 Q 3.7852507324218747 1.70249560546875 3.836250732421875 1.71449560546875 Q 3.893250732421875 1.72649560546875 3.934500732421875 1.7429956054687499 Q 3.975750732421875 1.75949560546875 3.998250732421875 1.78762060546875 Q 4.020750732421875 1.81574560546875 4.020750732421875 1.86374560546875 Q 4.020750732421875 1.90049560546875 4.006500732421875 1.92749560546875 Q 3.992250732421875 1.95449560546875 3.966750732421875 1.97249560546875 Q 3.941250732421875 1.99049560546875 3.906000732421875 1.99912060546875 Q 3.870750732421875 2.00774560546875 3.828750732421875 2.00774560546875 Q 3.787500732421875 2.00774560546875 3.749625732421875 1.99912060546875 Q 3.711750732421875 1.99049560546875 3.678000732421875 1.97362060546875 Q 3.6442507324218747 1.95674560546875 3.615000732421875 1.9304956054687499 L 3.641250732421875 1.88774560546875 Q 3.655500732421875 1.90274560546875 3.675375732421875 1.91587060546875 Q 3.695250732421875 1.92899560546875 3.719625732421875 1.93949560546875 Q 3.744000732421875 1.94999560546875 3.772125732421875 1.95562060546875 Q 3.800250732421875 1.96124560546875 3.830250732421875 1.96124560546875 Q 3.894000732421875 1.96124560546875 3.929625732421875 1.93799560546875 Q 3.965250732421875 1.91474560546875 3.965250732421875 1.86899560546875 Q 3.965250732421875 1.8359956054687498 3.947250732421875 1.81612060546875 Q 3.929250732421875 1.79624560546875 3.893250732421875 1.78349560546875 Q 3.8572507324218748 1.77074560546875 3.804750732421875 1.75874560546875 Q 3.749250732421875 1.74599560546875 3.711000732421875 1.7302456054687498 Q 3.672750732421875 1.71449560546875 3.653625732421875 1.68862060546875 Q 3.6345007324218748 1.66274560546875 3.6345007324218748 1.6199956054687499 Q 3.6345007324218748 1.57049560546875 3.658875732421875 1.53637060546875 Q 3.683250732421875 1.50224560546875 3.726000732421875 1.4846206054687499 Q 3.768750732421875 1.46699560546875 3.824250732421875 1.46699560546875 Q 3.859500732421875 1.46699560546875 3.889875732421875 1.47412060546875 Q 3.920250732421875 1.48124560546875 3.946125732421875 1.4947456054687498 Q 3.9720007324218747 1.5082456054687499 3.994500732421875 1.52849560546875 L 3.969000732421875 1.57049560546875 M 4.471871704101562 1.95674560546875 L 4.471871704101562 2.00324560546875 L 4.114121704101562 2.00324560546875 L 4.114121704101562 1.47074560546875 L 4.465121704101562 1.47074560546875 L 4.465121704101562 1.51724560546875 L 4.166621704101562 1.51724560546875 L 4.166621704101562 1.70924560546875 L 4.426871704101562 1.70924560546875 L 4.426871704101562 1.75349560546875 L 4.166621704101562 1.75349560546875 L 4.166621704101562 1.95674560546875 L 4.471871704101562 1.95674560546875 M 4.880232055664062 1.57049560546875 Q 4.868982055664062 1.55774560546875 4.853982055664062 1.54762060546875 Q 4.838982055664062 1.53749560546875 4.820232055664062 1.52999560546875 Q 4.801482055664062 1.52249560546875 4.780107055664062 1.51799560546875 Q 4.758732055664062 1.51349560546875 4.734732055664062 1.51349560546875 Q 4.664982055664062 1.51349560546875 4.632357055664062 1.54012060546875 Q 4.599732055664062 1.5667456054687499 4.599732055664062 1.61249560546875 Q 4.599732055664062 1.64399560546875 4.615107055664062 1.66199560546875 Q 4.6304820556640625 1.67999560546875 4.663482055664062 1.69124560546875 Q 4.696482055664062 1.70249560546875 4.7474820556640625 1.71449560546875 Q 4.804482055664062 1.72649560546875 4.845732055664062 1.7429956054687499 Q 4.886982055664062 1.75949560546875 4.909482055664062 1.78762060546875 Q 4.931982055664062 1.81574560546875 4.931982055664062 1.86374560546875 Q 4.931982055664062 1.90049560546875 4.917732055664062 1.92749560546875 Q 4.903482055664062 1.95449560546875 4.877982055664062 1.97249560546875 Q 4.852482055664062 1.99049560546875 4.817232055664062 1.99912060546875 Q 4.781982055664062 2.00774560546875 4.739982055664062 2.00774560546875 Q 4.698732055664062 2.00774560546875 4.660857055664062 1.99912060546875 Q 4.622982055664062 1.99049560546875 4.589232055664062 1.97362060546875 Q 4.555482055664062 1.95674560546875 4.526232055664062 1.9304956054687499 L 4.552482055664062 1.88774560546875 Q 4.566732055664062 1.90274560546875 4.586607055664062 1.91587060546875 Q 4.606482055664062 1.92899560546875 4.6308570556640625 1.93949560546875 Q 4.655232055664062 1.94999560546875 4.683357055664062 1.95562060546875 Q 4.711482055664062 1.96124560546875 4.741482055664062 1.96124560546875 Q 4.805232055664062 1.96124560546875 4.840857055664062 1.93799560546875 Q 4.876482055664062 1.91474560546875 4.876482055664062 1.86899560546875 Q 4.876482055664062 1.8359956054687498 4.858482055664062 1.81612060546875 Q 4.840482055664062 1.79624560546875 4.804482055664062 1.78349560546875 Q 4.768482055664062 1.77074560546875 4.715982055664062 1.75874560546875 Q 4.660482055664062 1.74599560546875 4.622232055664062 1.7302456054687498 Q 4.5839820556640625 1.71449560546875 4.564857055664062 1.68862060546875 Q 4.545732055664062 1.66274560546875 4.545732055664062 1.6199956054687499 Q 4.545732055664062 1.57049560546875 4.570107055664062 1.53637060546875 Q 4.594482055664062 1.50224560546875 4.637232055664062 1.4846206054687499 Q 4.679982055664062 1.46699560546875 4.735482055664062 1.46699560546875 Q 4.770732055664062 1.46699560546875 4.801107055664062 1.47412060546875 Q 4.831482055664062 1.48124560546875 4.857357055664062 1.4947456054687498 Q 4.883232055664062 1.5082456054687499 4.905732055664062 1.52849560546875 L 4.880232055664062 1.57049560546875"/></g></g><defs><clipPath id="SvgjsClipPath35032"><path d="M -4.136525866691287 -1.0993989133392226 h 3.736525866691287 v 4.202043432147195 h -3.736525866691287 Z"/></clipPath><clipPath id="SvgjsClipPath35030f46be444-b73d-4836-bfcc-5e789383ecc2"><path d="M -4.136525866691287 -1.0993989133392226 L -0.40000000000000036 -1.0993989133392226 L -0.40000000000000036 3.1026445188079723 L -4.136525866691288 3.1026445188079723 Z"/></clipPath></defs></svg>